<?xml version="1.0" encoding="utf-8"?>
<!-- Generator: Adobe Illustrator 16.0.0, SVG Export Plug-In . SVG Version: 6.00 Build 0)  -->
<!DOCTYPE svg PUBLIC "-//W3C//DTD SVG 1.1//EN" "http://www.w3.org/Graphics/SVG/1.1/DTD/svg11.dtd">
<svg version="1.1" id="Isolation_Mode" xmlns="http://www.w3.org/2000/svg" xmlns:xlink="http://www.w3.org/1999/xlink" x="0px"
	 y="0px" width="1538.192px" height="811.545px" viewBox="0 0 1538.192 811.545" enable-background="new 0 0 1538.192 811.545"
	 xml:space="preserve">
<g>
	<g>
		<path fill="#D6D6D6" d="M1524.883,351.719h-276.814V197.696h276.814V351.719z M1253.541,346.248h265.872v-143.08h-265.872V346.248
			z"/>
	</g>
	<g>
		<g>
			<g>
				<g>
					<g>
						<g>
							<path fill="#472585" d="M1319.494,292.624l-13.372-21.892c-1.096-1.795-0.529-4.139,1.266-5.236
								c1.795-1.096,4.14-0.529,5.236,1.266l9.455,15.48l25.137-14.877c1.811-1.071,4.146-0.473,5.217,1.338
								c1.072,1.811,0.474,4.146-1.337,5.218L1319.494,292.624z"/>
						</g>
					</g>
				</g>
			</g>
		</g>
		<g>
			<path fill="#472585" d="M1328.471,326.372c-26.516,0-48.087-21.572-48.087-48.087c0-26.514,21.571-48.086,48.087-48.086
				c26.514,0,48.085,21.572,48.085,48.086C1376.556,304.8,1354.985,326.372,1328.471,326.372z M1328.471,237.068
				c-22.728,0-41.218,18.49-41.218,41.217c0,22.728,18.49,41.217,41.218,41.217c22.727,0,41.216-18.489,41.216-41.217
				C1369.687,255.559,1351.198,237.068,1328.471,237.068z"/>
		</g>
	</g>
	<rect x="1396.495" y="250.096" fill="#DED4CE" width="77.613" height="15.457"/>
	<rect x="1396.495" y="283.863" fill="#DED4CE" width="87.087" height="15.456"/>
	<g>
		<polygon fill="#DED4CE" points="1320.517,453.902 1236.494,453.902 1236.494,448.431 1315.045,448.431 1315.045,354.994 
			1320.517,354.994 		"/>
	</g>
	<g>
		<polygon fill="#D6D6D6" points="1538.192,295.885 1532.721,295.885 1532.721,190.427 1419.535,190.427 1419.535,184.955 
			1538.192,184.955 		"/>
	</g>
</g>
<g>
	<path fill="#472585" d="M1094.764,179.446H742.848c-90.264,6.007-89.864,105.44-89.864,105.44l0,0v475.146h352.356V284.887
		C1005.34,284.887,1007.009,185.119,1094.764,179.446z"/>
	<g>
		<rect x="628.334" y="290.893" fill="#D6D6D6" width="4.252" height="365.703"/>
	</g>
	<path fill="#FFF9F5" d="M1080.695,172.996c-87.756,5.672-89.424,105.439-89.424,105.439v475.147H638.914V278.436
		c0,0-0.4-99.434,89.864-105.439H1080.695z"/>
	<rect x="685.183" y="297.121" fill="#DED4CE" width="242.023" height="21.355"/>
	<rect x="685.183" y="346.505" fill="#DED4CE" width="206.653" height="15.126"/>
	<rect x="685.183" y="386.434" fill="#DED4CE" width="103.883" height="22.467"/>
	<rect x="819.764" y="386.434" fill="#DED4CE" width="107.442" height="22.467"/>
	<rect x="685.183" y="429.699" fill="#DED4CE" width="165.501" height="16.017"/>
	<rect x="685.183" y="469.74" fill="#DED4CE" width="186.467" height="8.898"/>
	<rect x="685.183" y="509.781" fill="#DED4CE" width="224.227" height="8.897"/>
	<g>
		<path fill="#DED4CE" d="M789.863,599.557H684.386v-50.533h105.477V599.557z M685.981,597.963h102.288v-47.345H685.981V597.963z"/>
	</g>
	<rect x="815.092" y="549.82" fill="#DED4CE" width="94.318" height="11.568"/>
	<rect x="815.092" y="574.29" fill="#DED4CE" width="66.851" height="11.567"/>
	<rect x="685.183" y="629.902" fill="#DED4CE" width="201.648" height="8.898"/>
	<rect x="685.183" y="669.942" fill="#DED4CE" width="106.218" height="8.898"/>
	<g>
		<path fill="#D6D6D6" d="M1017.656,350.396h-4.251v-48.382c-0.057-0.798-5.22-93.686,73.17-107.201l0.723,4.19
			c-74.663,12.872-69.705,101.974-69.646,102.872L1017.656,350.396z"/>
	</g>
	<g>
		<polygon fill="#D6D6D6" points="1019.646,774.114 943.444,774.114 943.444,769.861 1015.394,769.861 1015.394,654.535 
			1019.646,654.535 		"/>
	</g>
	<g>
		<path fill="#DED4CE" d="M961.427,693.534h-66.551v-66.552h66.551V693.534z M901.255,687.155h53.793v-53.794h-53.793V687.155z"/>
	</g>
	<g>
		<polygon fill="#DED4CE" points="929.189,674.328 905.764,652.244 913.056,644.51 929.672,660.173 966.097,630.244 
			972.845,638.458 		"/>
	</g>
</g>
<g>
	<path opacity="0.24" fill="#3F444F" d="M925.474,509.123c-35.471-61.084-113.752-81.852-174.846-46.372
		c-6.133,3.561-11.855,7.551-17.15,11.912V504c7.647-8.979,16.921-16.825,27.7-23.091c51.057-29.652,116.484-12.293,146.137,38.765
		c9.102,15.674,13.77,32.698,14.397,49.63c0.047,1.323,0.076,2.637,0.076,3.961c0,36.851-19.073,72.712-53.239,92.546
		c-45.42,26.367-102.22,15.55-135.072-23.111v29.368c7.723,6.38,16.122,11.76,24.977,16.092h112.828
		c2.638-1.296,5.238-2.695,7.818-4.189C940.185,648.499,960.953,570.217,925.474,509.123z"/>
	<g>
		
			<rect x="498.426" y="714.302" transform="matrix(-0.7682 0.6402 -0.6402 -0.7682 1532.6299 908.8269)" fill="#E77817" width="206.716" height="35.145"/>
		
			<rect x="679.905" y="648.831" transform="matrix(-0.7682 0.6402 -0.6402 -0.7682 1635.899 731.9916)" fill="#BC9FBC" width="11.042" height="26.676"/>
		<path fill="#472585" d="M671.154,637.593C706.63,698.682,784.911,719.446,846,683.971
			c61.089-35.477,81.853-113.757,46.377-174.846c-35.475-61.089-113.757-81.853-174.845-46.377
			C656.443,498.223,635.679,576.504,671.154,637.593z M689.318,627.045c-15.735-27.096-18.232-58.241-9.478-85.938
			c7.74-24.488,24.279-46.281,48.239-60.197c51.058-29.648,116.484-12.294,146.133,38.762c9.102,15.673,13.773,32.699,14.403,49.629
			c-0.001,0-0.001,0.002-0.001,0.002c1.419,38.224-17.777,75.955-53.163,96.504C784.394,695.458,718.968,678.103,689.318,627.045z"
			/>
		<path opacity="0.3" fill="#C2C2C2" d="M679.84,541.107c0,0,111.338-84.54,208.774,28.195c0,0,0-0.002,0.001-0.002
			c-0.629-16.93-5.301-33.956-14.403-49.629c-29.649-51.056-95.075-68.41-146.133-38.762
			C704.119,494.826,687.581,516.619,679.84,541.107z"/>
	</g>
</g>
<g>
	<g>
		<path fill="#DE9D7D" d="M711.743,212.85c0,0,3.238-10.956,2.829-12.115c-0.41-1.158-8.036-8.556-7.968-9.449
			c0.068-0.895,10.201-7.146,11.24-8.93c1.04-1.785,2.915,3.436,3.28,7.947c0.365,4.513,1.094,11.695,1.08,12.662
			s-2.372,13.28-2.372,13.28L711.743,212.85z"/>
	</g>
	<g>
		<path fill="#E55353" d="M682.39,229.796c0,0,0.189,1.137,0.475,2.843v0.003c0.178,1.057,0.391,2.332,0.621,3.69
			c0.712,4.228,1.567,9.256,1.891,10.989c0.592,3.19,2.604,10.571,5.115,14.054c1.042,1.445,3.773,2.125,5.163,2.252
			c1.599,0.146,5.815,1.775,10.75-6.021c4.935-7.798,12.778-35.223,13.192-36.711c0.415-1.489,1.615-5.673,1.615-5.673l-10.15-3.589
			c0,0-7.291,19.798-8.322,22.527c-0.784,2.07-5.352,10.383-5.582,10.64c-0.232,0.257-0.806-22.699-0.806-22.699L682.39,229.796z"/>
	</g>
	<g>
		<g>
			<path fill="#323657" d="M727.113,378.87c0,0,7.489,12.694,10.651,14.768c4.292,2.815,1.603,5.661-0.435,5.664
				c-2.039,0.002-12.449,0.747-14.743-1.856c-2.294-2.604-3.432-10.404-5.566-12.445c-2.133-2.04-4.336-10.15,1.04-12.122
				C722.813,371.135,727.113,378.87,727.113,378.87z"/>
		</g>
	</g>
	<g>
		<g>
			<path fill="#EEA886" d="M723.87,373.285c0,0,8.577,14.868,10.056,17.064c1.478,2.195-2.784,2.193-5.425,1.149
				c-2.641-1.043-9.283-11.707-10.237-13.648c-1.139-2.317-0.203-4.973-0.203-4.973L723.87,373.285z"/>
		</g>
	</g>
	<g>
		<g>
			<polygon fill="#323657" points="715.181,381.285 717.16,396.526 718.209,396.572 717.883,385.608 			"/>
		</g>
	</g>
	<g>
		<g>
			<path fill="#323657" d="M652.846,378.87c0,0,7.489,12.694,10.651,14.768c4.292,2.815,1.603,5.661-0.436,5.664
				c-2.039,0.002-12.448,0.747-14.742-1.856s-3.432-10.404-5.565-12.445c-2.134-2.04-4.409-10.359,1.039-12.122
				C648.57,371.332,652.846,378.87,652.846,378.87z"/>
		</g>
	</g>
	<g>
		<g>
			<path fill="#EEA886" d="M650.053,373.315c0,0,8.127,14.838,9.605,17.034c1.478,2.195-2.784,2.193-5.425,1.149
				c-2.641-1.043-9.283-11.707-10.237-13.648c-1.139-2.317-0.203-4.973-0.203-4.973L650.053,373.315z"/>
		</g>
	</g>
	<g>
		<g>
			<polygon fill="#323657" points="640.914,381.285 642.893,396.526 643.942,396.572 643.616,385.608 			"/>
		</g>
	</g>
	<g>
		<g>
			<path fill="#EEA886" d="M619.617,263.328l67.772,30.881c0,0,1.612,0.525,3.436,1.916v0.002c0.688,0.525,1.406,1.176,2.079,1.971
				c1.395,1.648,2.591,3.917,2.899,6.97c2.646,26.217,22.257,67.812,22.257,67.812c6.293,3.076,5.812,0.406,5.812,0.406
				c-3.967-12.73-8.793-65.191-10.517-86.283c-0.364-4.468-0.59-7.528-0.64-8.507c-0.033-0.667-0.76-1.536-2.017-2.554
				c-9.298-7.542-47.566-23.153-47.566-23.153C634.402,252.059,619.617,263.328,619.617,263.328z"/>
		</g>
	</g>
	<g>
		<g>
			<path fill="#EEA886" d="M614.637,273.93c2.099,18.319,20.454,18.879,20.454,18.879h31.693c0,0-8.325,18.524-11.539,34.148
				c-3.411,16.582-11.452,45.921-11.452,45.921s0.526,0.997,6.26,0.438c0,0,24.878-49.584,34.4-62.048
				c2.048-2.683,7.92-17.243,8.932-25.929c0.341-2.922,0.13-5.18-0.961-6.096c-1.1-0.92-3.625-2.656-6.997-4.781
				c-9.926-6.26-27.167-15.897-36.772-18.057c-12.865-2.891-27.653-8.31-27.653-8.31S612.54,255.611,614.637,273.93z"/>
		</g>
	</g>
	<g>
		<path fill="#323657" d="M663.478,292.811h-28.387c0,0-20.644,0.537-23.058-17.742c-2.025-15.336,7.585-25.871,7.585-25.871
			s9.64,2.579,21.7,5.492c6.038-1.283,13.316-2.117,21.814-1.902c0,0,36.021,7.254,49.349,25.021
			C712.481,277.808,691.334,267.141,663.478,292.811z"/>
	</g>
	<g>
		<path fill="#EEA886" d="M694.148,172.662c-0.107,2.057-0.146,4.121-0.172,6.113c-0.008,0.618,0.015,1.235,0.065,1.85
			c0.3,3.636,1.612,7.145,3.673,9.863c0.002,0,0.002,0.002,0.002,0.002s0,0.001,0.001,0.002c2.919,3.844,7.341,6.098,12.527,4.865
			c9.471-2.25,15.774-32.989,15.774-32.989c-2.589-12.028-18.629-12.729-25.06-8.425
			C695.884,157.34,694.547,164.951,694.148,172.662z"/>
	</g>
	<g>
		<path fill="#E55353" d="M618.083,250.084c0,0,0.291,3.518,27.135,7.76c0.731,0.116,1.432,0.23,2.107,0.342
			c2.476,0.408,4.579,0.787,6.378,1.12c12.732,2.339,10.16,2.277,15.453-6.604c0.727-1.218,5.614-12.703,7.454-13.787
			c1.841-1.084,5.287-4.709,6.717-6.953c1.43-2.241,6.836-0.796,11.886-5.217c5.047-4.42,2.956-10.783,3.264-15.926
			c0.538-9.025-2.879-19.318-2.879-19.318c-14.145-26.498-34.754-5.477-38.516-1.673c-3.76,3.804-16.529,35.171-20.021,39.142
			C624.661,243.072,618.083,250.084,618.083,250.084z"/>
	</g>
	<g>
		<path fill="#EEA886" d="M681.201,179.718c0,0,2.096,25.8,8.255,28.712c6.335,2.997,4.116-22.374,4.116-22.374
			S688.366,175.403,681.201,179.718z"/>
	</g>
	<g>
		<path fill="#163342" d="M718.63,164.254c0,0,3.262,10.639,2.677,14.831c0,0,4.265-5.734,5.111-10.981
			c0.842-5.219,3.351-13.657-4.49-20.107S718.63,164.254,718.63,164.254z"/>
	</g>
	<g>
		<path fill="#EEA886" d="M686.646,187.327c0.025,6.366,6.799,9.95,7.312,6.924c0.058-0.338,0.845-1.166,1.436-1.772l0.001-0.003
			c0.234-0.239,0.437-0.446,0.55-0.569c0.454-0.503,1.075-0.979,1.772-1.416c2.595-1.628,6.245-2.73,6.245-2.73l-6.848-18.749
			c0,0-1.291,1.469-2.965,3.649C691.047,176.704,686.629,183.19,686.646,187.327z"/>
	</g>
	<g>
		<path fill="#A77860" d="M695.394,192.476c0.234-0.239,0.437-0.446,0.55-0.569c0.454-0.503,1.075-0.979,1.772-1.416
			c0,0-3.361-4.604-3.674-9.867C694.042,180.623,692.551,184.625,695.394,192.476z"/>
	</g>
	<g>
		<g>
			<g>
				<g>
					<g>
						<path fill="#FFB48F" d="M671.229,306.914c0,0-0.785-0.943-0.927-1.522c0,0-0.178-1.075-0.35-1.831
							c-0.056-0.239-0.109-0.447-0.158-0.577c-0.203-0.546-0.813-1.683-0.933-3.13c-0.12-1.445,0.965-7.814,0.965-7.814l3.609-0.392
							l3.327-0.848c0,0,5.2,7.206,5.469,8.54c0.025,0.131,0.046,0.26,0.055,0.384c0.118,1.152-0.279,2.058-0.286,2.669
							c-0.004,0.225-0.194,2.454-0.744,2.836c-0.762,0.528-1.505,0.588-2.095,0.351c0,0-1.538,0.972-2.753,0.82
							c0,0-1.389,0.941-2.848,0.324C673.561,306.724,672.043,307.521,671.229,306.914z"/>
					</g>
				</g>
			</g>
		</g>
	</g>
	<g>
		<path fill="#E55353" d="M670.318,199.674c0,0,3.545-13.32-5.705-13.122c-9.25,0.2-9.883,11.745-10.151,14.031
			c-0.268,2.287-3.43,29.252-3.066,34.354c0.364,5.104-0.656,12.058,0.431,18.818c0.814,5.066,17.276,40.355,17.546,40.495
			c0.269,0.14,8.4-3.186,8.4-3.186s-10.554-34.439-11.955-37.635c-2.174-4.958-1.325-8.579-1.428-11.021
			C664.289,239.968,669.91,201.744,670.318,199.674z"/>
	</g>
	<g>
		<path fill="#163342" d="M719.919,165.371c0,0-4.466,7.869-11.411,6.01c-6.946-1.858-12.054-0.044-12.895,2.886
			s-6.796,18.628-13.095,18.12s-10.889-10.076-14.432-8.206c-3.543,1.872-7.414,12.462-12.031,9.61
			c-4.618-2.852-3.716-12.61,6.15-16.835c9.865-4.226,16.887-4.227,19.764-9.728c2.876-5.502,10.038-20.501,16.881-23.472
			c5.075-2.203,11.104-3.853,20.618,2.315c9.513,6.169,6.552,16.296,6.552,16.296L719.919,165.371z"/>
	</g>
	<path fill="#B07C63" d="M690.825,296.125v0.002c0.688,0.525,1.406,1.176,2.079,1.971c0,0,1.397-5.227,0.599-14.114
		C693.502,283.983,693.468,287.805,690.825,296.125z"/>
	<path fill="#A63D3D" d="M647.325,258.186c2.476,0.408,4.579,0.787,6.378,1.12c0-0.003,0-0.003,0-0.003s-1.968-4.535-1.949-6.021
		c0.017-1.487-0.94-17.647,0.312-30.09c1.25-12.439,1.157-11.559,1.157-11.559S644.643,237.25,647.325,258.186z"/>
	<path fill="#A63D3D" d="M682.865,232.639v0.003c0.178,1.057,0.169,1.021,0.399,2.378c7.908-2.884,10.074-6.67,10.174-6.859
		c-2.702,1.969-6.45,2.204-8.357,2.662C683.171,231.277,682.865,232.639,682.865,232.639z"/>
</g>
<g>
	<g>
		<g>
			<g>
				<g>
					<g>
						<g>
							<path fill="#0E2D3D" d="M107.902,336.923c0,0,12.896,6.308,9.708,23.469c-3.189,17.161-4.6,19.474-1.033,26.179
								c3.566,6.705,7.775,35.309,4.565,40.73c-3.21,5.421-39.731-23.825-44.796-48.363s3.21-35.451,6.135-39.518
								C85.404,335.354,96.517,331.145,107.902,336.923z"/>
						</g>
					</g>
				</g>
			</g>
		</g>
		<g>
			<g>
				<polygon fill="#AAAAAA" points="0,304.54 54.308,304.54 54.308,343.903 54.308,352.193 46.017,343.903 0,343.903 				"/>
			</g>
		</g>
		<g>
			<path fill="#163342" d="M113.434,702.064c0,0,1.304,3.083,3.766,6.295c1.805,2.355,7.419,12.028,9.892,12.702
				c2.474,0.675,10.117,2.023,10.792,6.295s1.011,7.307-6.52,7.644c-7.532,0.338-12.478,0.788-16.075-4.496
				c-3.597-5.283-9.33-9.105-9.33-9.105v13.785h-2.923c0,0-1.349-14.347-2.136-15.358s-2.81-12.028,4.159-17.761
				C112.029,696.331,113.434,702.064,113.434,702.064z"/>
		</g>
		<g>
			<path fill="#EEA886" d="M127.092,721.062c0,0-6.744,1.687-9.33,0c-2.585-1.687-11.375-16.542-14.287-17.433
				c0,0,2.821-5.724,9.959-1.564C113.434,702.064,125.181,718.589,127.092,721.062z"/>
		</g>
		<g>
			<g>
				<g>
					<g>
						<path fill="#EEA886" d="M192.923,466.773c0,0,4.679,0.897,6.278-1.303c1.359-1.87,4.467-3.305,5.423-3.748
							c1.278-0.594,4.524-3.877,5.289-2.271c0.764,1.604-5.091,5.67-6.148,6.768s5.741,1.583,6.914,2.65s-0.27,12.283-4.896,11.41
							c-4.628-0.873-8.996-4.861-9.84-4.854s-3.393-0.502-3.393-0.502L192.923,466.773z"/>
					</g>
				</g>
			</g>
		</g>
		<g>
			<g>
				<g>
					<g>
						<path fill="#EEA886" d="M209.646,468.41c0,0,13.99,3.614,14.721,4.636c0.73,1.021,0.49,1.768-0.833,1.484
							c-1.321-0.283-13.618-3.101-13.618-3.101s15.839,7.06,16.621,7.766c0.458,0.414,0.078,1.886-0.645,1.799
							c-0.722-0.086-16.82-6.185-16.82-6.185s14.777,6.618,15.254,7.403c0.418,0.688-0.27,1.951-1.399,1.535
							c-1.129-0.415-15.192-5.782-15.192-5.782s10.452,5.493,10.465,6.396c0.007,0.552-0.262,1.84-2.915,0.338
							c-2.653-1.501-9.282-4.388-9.282-4.388L209.646,468.41z"/>
					</g>
				</g>
			</g>
		</g>
		<g>
			<path fill="#163342" d="M75.731,711.001c0,0,7.532,11.185,10.567,13.883c0,0,6.745,2.473,7.419,7.194
				c0.674,4.721,0.562,7.871-7.419,8.097c-7.981,0.225-13.213-1.209-14.675-6.043c-1.461-4.833-4.66-8.124-4.66-8.124v10.117h-1.799
				c0,0-0.449-9.78-0.562-11.578c-0.112-1.799-1.292-8.714,2.501-11.776C70.898,709.708,75.731,711.001,75.731,711.001z"/>
		</g>
		<g>
			<path fill="#070216" d="M70.673,495.117c0,0-9.51,12.365-12.09,27.035c-2.58,14.67,1.524,63.904,1.411,71.155
				c-0.112,7.25-6.857,25.292-5.508,38.95c1.349,13.658,6.672,81.635,6.672,81.635l14.573-2.892c0,0-0.843-69.301,0-75.033
				c0.843-5.733,2.535-26.63,2.873-28.991c0.337-2.36,21.409-64.346,21.409-74.922C100.013,521.478,93.605,477.863,70.673,495.117z"
				/>
		</g>
		<g>
			<path fill="#070216" d="M118.447,499.951c0,0,15.625,59.633,17.48,67.896c1.854,8.262,4.541,15.075,4.541,18.583
				c0,8.14-3.023,21.21-3.023,21.21l-19.841,94.895H98.707c0,0,10.529-56.931,10.813-68.063c0.284-11.157,8.872-27.002,7.186-31.723
				c-1.686-4.722-27.147-59.184-27.147-59.184S70.28,482.64,118.447,499.951z"/>
		</g>
		<g>
			<path fill="#EEA886" d="M86.298,724.884c0,0-7.712,4.312-12.679-1.225c-4.193-4.675-6.515-10.889-6.515-10.889l8.627-1.77
				L86.298,724.884z"/>
		</g>
		<g>
			<g>
				<path fill="#FF9B57" d="M111.994,398.611c0,0,6.442,0.607,11.31,5.822c4.867,5.216,9.436,13.532,10.71,16.313
					c1.274,2.782,19.145,28.56,20.072,29.139c0.928,0.579,9.91,3.581,15.862,5.584c9.185,3.091,27.597,9.782,27.597,9.782
					l-3.656,11.577c0,0-34.622-11.329-43.292-13.465c-10.603-2.612-35.011-33.925-35.011-33.925S97.392,408.115,111.994,398.611z"/>
			</g>
		</g>
		<g>
			<g>
				<path fill="#DED4CE" d="M100.752,394.092c0,0,8.344,3.939,11.242,4.52s14.14,15.182,16.11,20.514
					c1.97,5.331,0,13.328-4.057,22.715c-4.056,9.389-0.231,12.517-2.085,21.904c-1.855,9.389-1.258,44.506-0.911,49.723
					c0.348,5.215-54.247,13.12-65.025,3.616c0,0,7.297-31.65,15.936-40.684c1.868-1.954,1.67-14.973,0.396-18.218
					c-1.275-3.245-15.646-27.467-15.646-27.467s-1.055-24.568,5.216-29.438c5.447-4.23,20.292-5.739,22.958-6.666
					C87.551,393.684,95.306,393.28,100.752,394.092z"/>
			</g>
		</g>
		<g>
			<g>
				<path fill="#EEA886" d="M104.737,384.463c0,0-0.249,2.297-0.537,5.402c-0.11,1.229-0.232,2.585-0.343,3.974
					c-0.333,4.163-0.598,8.63-0.438,10.916c0,0-8.674,8.69-18.532-10.142c0,0,4.146-7.766,1.024-18.338
					C82.789,365.697,104.737,384.463,104.737,384.463z"/>
			</g>
		</g>
		<g>
			<path fill="#183C59" d="M129.007,445.302c0,0,2.087-13.882-0.132-22.325c0,0,0,7.261-3.98,17.569L129.007,445.302z"/>
		</g>
		<g>
			<path fill="#EEA886" d="M78.224,395.948c0,0,5.964,17.617,22.341,16.321c16.376-1.295,7.763-14.875,7.763-14.875
				s-4.082-2.34-5.23-2.562c-1.148-0.221-18.105-0.436-18.105-0.436L78.224,395.948z"/>
		</g>
		<g>
			<path fill="#FF9B57" d="M108.328,397.395c0,0,8.577,23.726,8.577,47.907s0.691,63.573,3.686,76.013
				c2.994,12.439,11.518,50.908,11.518,50.908l6.681-3.455c0,0-16.064-61.396-17.277-65.823c-1.212-4.427,0.922-51.198,2.073-55.114
				c1.152-3.916,6.051-21.348,5.29-26.184c-0.96-6.098-6.665-15.118-15.879-22.875L108.328,397.395z"/>
		</g>
		<g>
			<path fill="#FF9B57" d="M81.459,395.207c0,0,5.332,17.07,8.033,38.932c2.702,21.863-8.292,123.342-15.664,146.377l-28.564-4.607
				c0,0,6.148-71.729,14.496-84.783s11.003-24.604,1.993-51.848c-9.011-27.247,3.949-40.739,3.949-40.739
				S78.956,395.49,81.459,395.207z"/>
		</g>
		<g>
			<polygon fill="#616161" points="112.276,467.596 77.643,527.584 39.14,505.355 72.27,444.498 			"/>
		</g>
		<g>
			<polygon fill="#E0CEC7" points="108.102,469.66 77.342,522.938 43.147,503.194 72.57,449.146 			"/>
		</g>
		<g>
			<polygon fill="#616161" points="96.754,464.873 98.913,461.134 85.088,453.152 82.389,456.58 			"/>
		</g>
		<g>
			<g>
				<g>
					<g>
						<g>
							<g>
								<path fill="#EEA886" d="M95.104,507.437c0,0-1.575,0.007-2.265-0.326c0,0-1.209-0.702-2.1-1.148
									c-0.283-0.142-0.533-0.258-0.702-0.315c-0.706-0.245-2.33-0.57-3.861-1.634c-1.53-1.061-6.954-7.341-6.954-7.341
									l2.562-3.895l1.878-3.988c0,0,11.387,0.735,12.928,1.561c0.15,0.081,0.295,0.167,0.426,0.258
									c1.236,0.825,1.81,1.959,2.41,2.465c0.219,0.188,2.271,2.197,2.2,3.053c-0.098,1.188-0.647,1.971-1.364,2.362
									c0,0-0.294,2.317-1.436,3.397c0,0-0.203,2.146-2.006,3.086C96.819,504.971,96.369,507.125,95.104,507.437z"/>
							</g>
						</g>
					</g>
				</g>
			</g>
		</g>
		<g>
			<g>
				<path fill="#FF9B57" d="M71.634,398.611c0,0-10.518-3.013-16.544,8.576c-6.026,11.59-5.997,16.535-6.802,22.193
					c-0.76,5.344-4.194,19.934-4.542,21.44s-8.124,19.474-4.558,25.753c3.584,6.312,39.987,24.891,39.755,26.281
					c-0.231,1.391,6.305-14.047,6.305-14.047s-14.73-8.21-17.143-10.738c-3.919-4.105-12.186-8.531-10.487-13.624
					c1.995-5.983,7.988-26.171,9.379-29.127S80.5,402.378,71.634,398.611z"/>
			</g>
		</g>
		<g>
			<g>
				<g>
					<g>
						<g>
							<path fill="#EEA987" d="M106.032,338.826c0,0,18.724,5.885,8.56,38.197c-10.165,32.314-35.737-3.744-33.063-23.432
								S106.032,338.826,106.032,338.826z"/>
						</g>
					</g>
				</g>
			</g>
		</g>
		<g>
			<g>
				<g>
					<g>
						<g>
							<path fill="#0E2D3D" d="M116.505,357.68c0,0-9.304,9.131-24.875,10.273c0,0-5.984,7.016-6.444,9.77
								c0,0-13.893-23.68,3.185-37.875S122.782,351.831,116.505,357.68z"/>
						</g>
					</g>
				</g>
			</g>
		</g>
		<g>
			<g>
				<g>
					<g>
						<g>
							<path fill="#EEA987" d="M91.818,368.595c-0.121-2.352-1.57-7.703-5.065-6.205s0.214,12.397,2.533,11.727
								C89.286,374.116,92.103,374.159,91.818,368.595z"/>
						</g>
					</g>
				</g>
			</g>
		</g>
		<g>
			<path fill="#A77860" d="M104.2,389.865c-0.11,1.229-0.232,2.585-0.343,3.974c0,0-8.264-0.493-13.789-12.786
				C90.428,381.59,96.483,390.484,104.2,389.865z"/>
		</g>
	</g>
</g>
<g>
	<g>
		<polygon fill="#DED4CE" points="539.457,618.387 443.839,618.387 443.839,412.276 449.311,412.276 449.311,612.914 
			539.457,612.914 		"/>
	</g>
	<g>
		<g>
			<path fill="#D6D6D6" d="M566.092,402.848H289.277v-192.95h276.815V402.848z M294.749,397.376H560.62V215.369H294.749V397.376z"/>
		</g>
		<rect x="430.833" y="264.878" fill="#DED4CE" width="108.623" height="15.456"/>
		<rect x="430.833" y="298.645" fill="#DED4CE" width="85.375" height="15.457"/>
		<rect x="430.833" y="332.412" fill="#DED4CE" width="95.796" height="15.455"/>
		<g>
			<polygon fill="#D6D6D6" points="382.242,418.561 274.537,418.561 274.537,317.076 280.008,317.076 280.008,413.089 
				382.242,413.089 			"/>
		</g>
		<path fill="#472585" d="M404.071,283.235h-18.646c-1.065-10.278-6.608-19.821-14.722-25.694h33.368c2.018,0,3.67-1.652,3.67-3.672
			c0-2.018-1.652-3.67-3.67-3.67h-77.672c-2.019,0-3.671,1.652-3.671,3.67c0,2.02,1.652,3.672,3.671,3.672h22.245
			c15.124,0,27.604,11.379,29.401,25.694h-51.646c-2.019,0-3.671,1.652-3.671,3.671c0,2.02,1.652,3.672,3.671,3.672h51.646
			c-1.835,14.865-14.46,26.024-29.401,26.061h-22.208c-2.056,0.037-3.708,1.726-3.67,3.783c0,0.989,0.441,1.942,1.137,2.641
			l55.539,52.528c1.468,1.396,3.781,1.321,5.175-0.147c1.396-1.506,1.321-3.815-0.148-5.248l-48.856-46.215h12.995
			c19.16,0,34.982-14.683,36.818-33.402h18.646c2.018,0,3.67-1.652,3.67-3.672C407.742,284.888,406.089,283.235,404.071,283.235
			L404.071,283.235z M404.071,283.235"/>
	</g>
</g>
<g>
	<g>
		<path fill="#D6D6D6" d="M1159.513,164.394H882.697V10.943h276.816V164.394z M888.168,158.922h265.873V16.414H888.168V158.922z"/>
	</g>
	<polygon fill="#472585" points="998.779,71.64 999.72,91.85 1007.742,91.476 1006.164,57.571 971.541,59.183 971.914,67.205 
		992.843,66.23 955.949,106.727 917.562,71.752 912.154,77.689 956.478,118.071 	"/>
	<rect x="1031.123" y="46.174" fill="#DED4CE" width="98.749" height="15.456"/>
	<rect x="1031.123" y="79.94" fill="#DED4CE" width="77.614" height="15.456"/>
	<rect x="1031.123" y="113.707" fill="#DED4CE" width="87.088" height="15.457"/>
	<g>
		<polygon fill="#DED4CE" points="818.902,218.543 813.431,218.543 813.431,191.207 995.471,191.207 995.471,172.182 
			1000.943,172.182 1000.943,196.679 818.902,196.679 		"/>
	</g>
	<g>
		<polygon fill="#D6D6D6" points="875.673,79.94 870.202,79.94 870.202,0 1003.833,0 1003.833,5.472 875.673,5.472 		"/>
	</g>
</g>
<g>
	<g>
		<g>
			<path fill="#202338" d="M1119.07,745.54c0,0-6.453,6.775-13.004,8.195c-6.55,1.42-11.133,3.23-11.183,7.119
				c-0.049,3.888,18.853,6.45,26.349,2.53c11.189-5.85,12.326-4.086,13.567-7.011c1.24-2.924-1.49-10.745-1.41-11.675
				C1133.49,743.55,1119.07,745.54,1119.07,745.54z"/>
		</g>
		<g>
			<path fill="#2F6B8C" d="M1119.796,742.298c0,0-0.853,3.175-0.726,3.242c0.127,0.066,14.762,1.707,14.319-0.841
				c-0.359-2.065-0.871-4.311-0.871-4.311L1119.796,742.298z"/>
		</g>
		<g>
			<path fill="#202338" d="M1191.963,747.307c0,0-4.746,6.601-11.096,8.123c-6.26,1.501-10.317,4.357-10.625,8.137
				c-0.307,3.779,14.761,8.729,25.347,2.09c6.956-4.361,9.55-4.113,10.952-6.885s-0.734-10.539-0.594-11.438
				C1206.121,746.221,1191.963,747.307,1191.963,747.307z"/>
		</g>
		<g>
			<path fill="#2F6B8C" d="M1192.157,744.044c0,0-0.313,3.189-0.194,3.263c0.119,0.072,14.068,2.541,13.985,0.026
				c-0.066-1.997-0.885-4.482-0.885-4.482L1192.157,744.044z"/>
		</g>
		<g>
			<path fill="#323657" d="M1134.558,551.653c0,0-6.778,49.232-9.547,65.875c-3.236,19.46-4.333,35.538-5.235,45.61
				c-1.136,12.669-0.505,77.5-1.3,81.203c-0.795,3.705,16.027,1.779,16.027,1.779s12.336-84.518,15.717-98.01
				c3.148-12.563,11.809-64.352,14.682-60.922c2.874,3.431,12.176,62.428,14.304,72.335c2.127,9.907,10.719,87.903,10.719,87.903
				s14.298,3.104,18.198,0c0,0-0.872-69.548-2.228-88.124c-0.517-7.079,4.479-84.747-7.492-116.069
				C1192.077,526.682,1134.558,551.653,1134.558,551.653z"/>
		</g>
		<path fill="#CEC80D" d="M1133.97,554.004l-0.764,7.392c0,0,20.649,8.366,70.919,8.371v-8.459L1133.97,554.004z"/>
		<g>
			<g>
				<g>
					<path fill="#EEA886" d="M1076.062,460.975c0,0-3.008,6.639-4.791,7.053c-1.784,0.416-3.905,2.633-5.434,3.313
						s-6.339,1.056-7.63,2.315c-0.528,0.515-2.547,4.943-3.731,5.873c-1.183,0.932-3.806,2.526-2.993,3.522
						c0.813,0.995,3.541,0.208,3.541,0.208s-1.027,0.914-0.585,2.016c0.861,2.143,2.3,2.236,2.3,2.236s-0.458,1.611,0.125,2.408
						c1.284,1.758,2.679,1.807,2.679,1.807s0.123,1.245,1.241,2.214c1.432,1.239,3.196,0.528,3.196,0.528s1.432,1.973,2.751,1.587
						c1.319-0.386,2.085-1.373,3.026-1.951c0.942-0.578,7.518-8.163,9.938-15.257c2.42-7.093,6.63-12.857,6.63-12.857
						L1076.062,460.975z"/>
				</g>
			</g>
		</g>
		<g>
			<path fill="#5E6175" d="M1077.426,494.549c0,0,23.366,10.629,31.669,8.586c3.838-0.944,8.894-6.242,13.698-12.472
				c1.583-2.052,3.137-4.204,4.614-6.335c0.005-0.005,0.005-0.01,0.005-0.01c5.894-8.51,10.513-16.667,10.513-16.667
				s17.422-20.417,3.441-29.519c0,0-5.074-1.901-9.732,3.093c-4.663,4.994-10.133,15.441-11.355,18.105
				c-1.222,2.66-18.335,27.344-19.222,27.899c-0.887,0.557-8.365-1.412-14.361-1.91c-9.775-0.816-7.835-1.229-7.835-1.229
				L1077.426,494.549z"/>
		</g>
		<path fill="#5E6175" d="M1154.443,433.578c0,0-17.935,3.709-20.063,5.594c-2.31,2.006-6.384,21.649-6.628,27.121
			c-0.242,5.471,2.163,28.328,4.473,36.84c2.31,8.512-3.042,44.744,1.244,50.715c0,0,36.964,11.859,72.47,7.238
			c0,0-7.622-34.194-6.202-45.857c1.821-14.941,6.202-49.367,6.202-49.367s-4.744-23.18-7.905-25.854
			c-3.162-2.676-25.139-7.027-25.139-7.027L1154.443,433.578z"/>
		<path fill="#B86C1F" d="M1194.381,480.357c0,0,3.387,22.041,3.15,23.455C1197.293,505.227,1212.865,499.385,1194.381,480.357z"/>
		<g>
			<path fill="#C4B4AF" d="M1272.567,601.755l15.58-25.858c2.64-4.382,1.228-10.074-3.154-12.714l-39.038-23.521
				c-4.382-2.641-10.073-1.229-12.714,3.152l-15.579,25.859c-2.64,4.381-1.229,10.072,3.153,12.713l39.039,23.521
				C1264.235,607.547,1269.927,606.136,1272.567,601.755z"/>
			
				<rect x="1092.551" y="335.804" transform="matrix(-0.5161 0.8565 -0.8565 -0.5161 2116.874 -213.1675)" fill="#EB4747" width="52.205" height="311.188"/>
			
				<rect x="972.039" y="467.791" transform="matrix(-0.8565 -0.5161 0.5161 -0.8565 1847.5967 1466.5723)" fill="#CF2B2B" width="311.189" height="17.402"/>
			
				<rect x="1109.952" y="335.803" transform="matrix(-0.5161 0.8565 -0.8565 -0.5161 2116.8965 -213.1362)" fill="#E03636" width="17.402" height="311.189"/>
			
				<rect x="1100.972" y="350.709" transform="matrix(-0.5161 0.8565 -0.8565 -0.5161 2116.0149 -182.8938)" fill="#EB4747" width="17.402" height="311.188"/>
			<polygon fill="#EDDAD3" points="971.91,433.456 998.851,388.742 938.367,376.541 922.813,373.403 932.856,385.688 			"/>
			<path fill="#DECCC6" d="M989.87,403.647c3.991,2.404,9.235,1.015,11.715-3.101c2.479-4.115,1.256-9.4-2.734-11.805
				L989.87,403.647z"/>
			<path fill="#E3D1CA" d="M980.89,418.553c3.991,2.404,9.235,1.015,11.715-3.102c2.48-4.115,1.256-9.4-2.734-11.805L980.89,418.553
				z"/>
			<path fill="#EDDAD3" d="M971.909,433.457c3.991,2.404,9.236,1.016,11.715-3.1c2.48-4.116,1.257-9.401-2.734-11.806
				L971.909,433.457z"/>
			
				<rect x="1252.323" y="548.679" transform="matrix(-0.8565 -0.5161 0.5161 -0.8565 2055.1069 1686.0172)" fill="#B39696" width="19.122" height="17.402"/>
			
				<rect x="1244.203" y="562.724" transform="matrix(-0.5161 0.8565 -0.8565 -0.5161 2389.6797 -205.5463)" fill="#DBB8B8" width="17.402" height="19.121"/>
			
				<rect x="1235.223" y="577.628" transform="matrix(-0.5161 0.8565 -0.8565 -0.5161 2388.8311 -175.2563)" fill="#F2CBCB" width="17.402" height="19.122"/>
			<polygon fill="#DECCC6" points="989.871,403.646 922.813,373.403 998.851,388.742 			"/>
			<polygon fill="#E3D1CA" points="980.89,418.552 922.813,373.403 989.871,403.646 			"/>
			<polygon fill="#EDDAD3" points="980.89,418.552 922.813,373.403 971.909,433.457 			"/>
			<polygon fill="#EB4747" points="932.856,385.688 938.367,376.541 922.813,373.403 			"/>
		</g>
		<g>
			<g>
				<g>
					<g>
						<g>
							<path fill="#EEA886" d="M1157.639,554.444c0,0,1.657-0.141,2.351-0.556c0,0,1.207-0.852,2.1-1.404
								c0.284-0.176,0.536-0.322,0.708-0.398c0.72-0.323,2.396-0.817,3.907-2.08c1.509-1.259,6.623-8.371,6.623-8.371l-3.06-3.855
								l-2.349-4.017c0,0-11.905,1.842-13.448,2.854c-0.149,0.1-0.294,0.203-0.423,0.312c-1.223,0.983-1.72,2.229-2.303,2.818
								c-0.213,0.217-2.184,2.523-2.028,3.416c0.214,1.239,0.866,2.012,1.656,2.356c0,0,0.526,2.408,1.83,3.437
								c0,0,0.415,2.238,2.399,3.057C1155.604,552.012,1156.279,554.235,1157.639,554.444z"/>
						</g>
					</g>
				</g>
			</g>
		</g>
		<path fill="#5E6175" d="M1188.16,439.513c-2.352,0.911-4.843,6.601-2.991,17.76c1.988,11.974,5.941,17.087,7.53,19.886
			s10.328,20.049,8.758,22.318c-1.571,2.27-16.407,16.908-17.267,18.1c-0.858,1.191-17.423,16.187-17.423,16.187l8.434,11.785
			c0,0,35.77-27.94,38.561-30.729c2.791-2.789,11.133-8.65,8.047-18.395c-3.136-9.904-8.771-33.091-9.772-34.903
			S1203.709,433.492,1188.16,439.513z"/>
		<g>
			<g>
				<path fill="#EEA886" d="M1055.388,482.383c0,0,5.735-6.39,8.595-6.271c2.859,0.115,0.915,2.535,0.915,2.535
					s1.884-2.425,3.922-1.145c2.038,1.279-0.386,3.992-0.386,3.992s1.908-1.459,3.418,0.555c1.509,2.014-0.999,3.811-0.999,3.811
					s3.788-0.564,2.981,2.529c-1.363,5.225-7.001,7.717-7.001,7.717s-1.612,0.631-2.929-1.411c0,0-3.563,1.337-4.544-2.767
					c0,0-4.274-0.988-2.963-4.297C1056.396,487.631,1052.099,485.977,1055.388,482.383z"/>
			</g>
		</g>
		<path fill="#CEC80D" d="M1146.326,435.398c0,0-1.077-4.906,14.281-6.043c15.358-1.139,25.748,2.313,26.038,6.72
			c0.289,4.407-38.907,15.407-38.907,15.407L1146.326,435.398z"/>
		<path fill="#EEA886" d="M1161.858,378.122c0,0-21.573-7.983-20.225,20.687c1.349,28.67,6.404,31.584,20.596,27.58
			c14.192-4.005,15.381-22.099,17.229-30.803C1181.307,386.881,1168.913,379.373,1161.858,378.122z"/>
		<path fill="#EEA886" d="M1150.892,438.117c0,0,5.169,2.279,22.003-5.137c0,0-0.476-11.541,2.827-22.32
			c3.302-10.779-22.59,14.372-22.59,14.372c0.271,0.191,0.324,1.269,0.168,2.772c-0.132,1.273-0.411,2.852-0.831,4.454
			C1151.524,435.863,1151.745,435.223,1150.892,438.117z"/>
		<path fill="#163342" d="M1176.459,409.805c0,0,0.062-7.659-3.123-8.363c-3.185-0.705-4.826,3.722-4.826,3.722l-2.564-0.138
			c0,0,2.292-7.761-0.745-9.54c-3.037-1.779-21.2-0.216-23.479-2.829c-2.28-2.613,1.026-18.132,5.981-19.655
			c4.956-1.522,18.493-4.612,27.09,3.043c0,0,7.383,3.189,7.684,9.278C1182.777,391.412,1179.051,405.651,1176.459,409.805z"/>
		<path fill="#B07C63" d="M1152.47,432.259c16.722-2.812,19.221-12.321,19.258-12.469c-6.5,8.382-18.427,8.015-18.427,8.015
			C1153.169,429.078,1152.89,430.656,1152.47,432.259z"/>
		<path fill="#EEA886" d="M1169.731,398.189c0.953-2.526,6.334-2.209,5.783,1.797c-0.551,4.006-4.999,10.174-6.784,9.017
			C1166.944,407.846,1168.417,401.673,1169.731,398.189z"/>
	</g>
</g>
</svg>
